<svg xmlns="http://www.w3.org/2000/svg" width="779.2" height="216" viewBox="0 0 779.2 216">
  <g id="Layer_2" data-name="Layer 2">
    <g id="Layer_1-2" data-name="Layer 1">
      <path d="M224.8,52.8V63.9c-6.4-8.3-18.3-14-32.1-14-32.5,0-56.8,28.8-56.8,62.5s24,62.5,56.8,62.5c13.8,0,25.7-5.5,32.1-14.3v11.2h40.6V52.8ZM279.4,0V171.8h42.1V108.4c0-12.4,5.9-19.8,15.5-19.8s14.4,6.4,14.4,18.3v64.9h42.1V97c0-29-15.7-47.1-40.9-47.1-13.5,0-24,5.2-31.3,14.5V0ZM664.2,112.4c0,35.6-27.4,62.5-63.7,62.5s-63.7-26.9-63.7-62.5,27.3-62.5,63.7-62.5,63.7,26.9,63.7,62.5Zm-134.5,0c0,35.6-27.4,62.5-63.7,62.5s-63.7-26.9-63.7-62.5S429.6,49.9,466,49.9s63.7,26.9,63.7,62.5ZM0,52.8l50.9,120L32.6,216H77.2L145,52.8H100.5L73,122.6,45.6,52.8Zm201.3,84.1c-14.1,0-24.7-10.7-24.7-24.5s10.6-24.5,24.7-24.5a24.5,24.5,0,0,1,0,49Zm288.4-24.5c0-13.3-9.9-24-23.7-24s-23.8,10.7-23.8,24,10,24,23.8,24,23.7-10.7,23.7-24Zm134.5,0c0-13.3-9.9-24-23.7-24s-23.8,10.7-23.8,24,10,24,23.8,24,23.7-10.7,23.7-24Zm45.2,34.2a27,27,0,0,0,27.3,27.3A28,28,0,0,0,725,145.7a27,27,0,0,0-27.3-27.4,28.2,28.2,0,0,0-28.3,28.3ZM729.3,0,684.6,107.9h49.9L779.2,0Z" fill="#6001d2"/>
    </g>
  </g>
</svg>
