<svg xmlns="http://www.w3.org/2000/svg" width="489.9" height="128.1" viewBox="0 0 489.9 128.1">
  <g id="Layer_2" data-name="Layer 2">
    <g id="Layer_5" data-name="Layer 5">
      <g>
        <path d="M91.9,21.6v4.5c-2.6-3.4-7.4-5.7-13.1-5.7C65.5,20.4,55.6,32.2,55.6,46s9.8,25.5,23.2,25.5c5.7,0,10.5-2.2,13.1-5.8v4.6h16.7V21.6ZM114.3,0V70.3h17.2v-26c0-5,2.4-8,6.3-8s5.9,2.6,5.9,7.4V70.3h17.2V39.7c0-11.9-6.4-19.3-16.7-19.3a15.5,15.5,0,0,0-12.8,5.9V0ZM271.6,46c0,14.5-11.1,25.5-26,25.5s-26.1-11-26.1-25.5,11.2-25.6,26.1-25.6,26,11,26,25.6Zm-55,0c0,14.5-11.1,25.5-26,25.5s-26.1-11-26.1-25.5,11.2-25.6,26.1-25.6,26,11,26,25.6ZM0,21.6,20.8,70.7,13.3,88.3H31.6L59.3,21.6H41.1L29.8,50.1,18.7,21.6ZM82.3,56a10,10,0,1,1,0-20,10,10,0,1,1,0,20Zm118-10a9.7,9.7,0,1,0-19.4,0,9.7,9.7,0,1,0,19.4,0Zm55,0a9.7,9.7,0,1,0-9.7,9.8,9.5,9.5,0,0,0,9.7-9.8Zm18.5,14A11,11,0,0,0,285,71.1a11.4,11.4,0,0,0,11.5-11.5,11,11,0,0,0-11.2-11.2A11.5,11.5,0,0,0,273.8,60ZM298.3,0,280,44.1h20.4L318.7,0Z" fill="#39007d"/>
        <path d="M284.8,115.2c-7.4,0-12.8-5.3-12.8-13.7s5.4-14.2,12.8-14.2a9.8,9.8,0,0,1,8,3.6V88h9.9v25.1c0,9.2-5.7,15-16.2,15-6.9,0-11.4-2.2-14-6.5l7.8-5a7.1,7.1,0,0,0,6.4,3.4c3.9,0,6.1-2.2,6.1-6.6V112A10.7,10.7,0,0,1,284.8,115.2Zm2.8-19.1a5.4,5.4,0,0,0-5.4,5.4,5.4,5.4,0,0,0,5.4,5.4,5.5,5.5,0,0,0,5.5-5.4A5.5,5.5,0,0,0,287.6,96.1Zm67.2,19.1c-7.5,0-12.8-5.3-12.8-13.7s5.4-14.2,12.8-14.2a9.5,9.5,0,0,1,7.9,3.6V88h10v25.1c0,9.2-5.7,15-16.2,15-6.9,0-11.5-2.2-14.1-6.5l7.8-5a7.1,7.1,0,0,0,6.4,3.4c3.9,0,6.1-2.2,6.1-6.6V112A10.3,10.3,0,0,1,354.8,115.2Zm2.8-19.1a5.5,5.5,0,0,0-5.5,5.4,5.5,5.5,0,0,0,5.5,5.4,5.4,5.4,0,0,0,5.4-5.4A5.4,5.4,0,0,0,357.6,96.1Zm122.2,20.2h10.1V98.8c0-6.7-3.7-10.9-9.6-10.9a8.3,8.3,0,0,0-7.4,4V76.4H462.8v39.9h10.1V101.6c0-2.8,1.3-4.5,3.5-4.5s3.4,1.5,3.4,4.2Zm-40.5,9.6V112.7a9.4,9.4,0,0,0,7.9,3.7c7.5,0,13-6.4,13-14.5s-5.4-14.6-13-14.6a9.5,9.5,0,0,0-7.9,3.8v-3H429.2v37.8Zm-.3-24a5.7,5.7,0,1,1,5.6,5.6,5.6,5.6,0,0,1-5.6-5.6ZM259.4,77.8V91a9.6,9.6,0,0,0-8-3.7c-7.5,0-12.9,6.5-12.9,14.6s5.4,14.5,12.9,14.5a9.7,9.7,0,0,0,8-3.8v3h10V77.8Zm.3,24.1a5.7,5.7,0,1,1-5.7-5.7,5.6,5.6,0,0,1,5.7,5.7ZM131.5,87.3c-8.6,0-15.1,6.3-15.1,14.6s6.5,14.5,15.1,14.5,15.1-6.3,15.1-14.5-6.5-14.6-15.1-14.6Zm5.5,14.6a5.5,5.5,0,1,1-5.5-5.5,5.4,5.4,0,0,1,5.5,5.5Zm-33.2,13.7h10.1V98.2c0-6.8-3.7-10.9-9.6-10.9a8.4,8.4,0,0,0-7.5,4V88.1H86.7v27.5H96.8V101c0-2.8,1.4-4.5,3.6-4.5s3.4,1.5,3.4,4.1Zm230.4-13.3c0-9-5.8-15-14.3-15a14.3,14.3,0,0,0-14.6,14.6c0,8.8,5.7,14.5,14.7,14.5,6.1,0,10.6-2.3,13.2-6.8l-8.6-3.3a5.2,5.2,0,0,1-4.5,2.3,4.7,4.7,0,0,1-5-4.2h19A12.2,12.2,0,0,0,334.2,102.3Zm-19-3.6c.2-2.3,2.1-3.8,4.6-3.8s4.4,1.5,4.7,3.8Zm-79.3,3.6c0-9-5.8-15-14.3-15A14.3,14.3,0,0,0,207,101.9c0,8.8,5.7,14.5,14.7,14.5,6,0,10.6-2.3,13.2-6.8l-8.6-3.3a5.3,5.3,0,0,1-4.6,2.3,4.7,4.7,0,0,1-4.9-4.2h19C235.8,103.9,235.9,103.2,235.9,102.3Zm-19.1-3.6a4.4,4.4,0,0,1,4.7-3.8c2.6,0,4.4,1.5,4.6,3.8Zm-34.5,16.9,9.4-27.5h-10l-4.3,14.3-4.6-14.3h-7.5l-4.7,14.3-4.3-14.3H146.2l9.3,27.5h8.6l4.8-14.7,4.9,14.7Zm12.1-39.3v39.8h10V76.3ZM416.7,88.1V91a9.6,9.6,0,0,0-8-3.7c-7.5,0-12.9,6.5-12.9,14.6s5.4,14.5,12.9,14.5a9.6,9.6,0,0,0,8-3.7v2.9h9.9V88.1Zm-5.4,19.3a5.6,5.6,0,1,1,0-11.1,5.6,5.6,0,1,1,0,11.1ZM394.2,87.5l-1.5-.2a7.9,7.9,0,0,0-7.5,4.9V88h-9.9v27.5h9.9v-10c0-5.1,2.4-8,6.6-8a6.4,6.4,0,0,1,2.4.4ZM55.6,77.8h10V97.6L72.5,88H84.2l-9.5,13.3,10.4,14.3H73.2l-7.6-10.5v10.5h-10Z" fill="#7e1fff"/>
      </g>
    </g>
  </g>
</svg>
